<?xml version="1.0" standalone="no"?>
<!DOCTYPE svg PUBLIC "-//W3C//DTD SVG 20010904//EN"
 "http://www.w3.org/TR/2001/REC-SVG-20010904/DTD/svg10.dtd">
<svg version="1.0" xmlns="http://www.w3.org/2000/svg"
 width="999.000000pt" height="999.000000pt" viewBox="0 0 999.000000 999.000000"
 preserveAspectRatio="xMidYMid meet">
<metadata>
Created by potrace 1.14, written by Peter Selinger 2001-2017
</metadata>
<g transform="translate(0.000000,999.000000) scale(0.100000,-0.100000)"
fill="#000000" stroke="none">
<path d="M4837 8416 c-13 -10 -237 -319 -369 -509 -7 -11 -29 -41 -48 -67 -19
-26 -41 -56 -48 -67 -35 -50 -470 -663 -493 -693 -30 -41 -477 -671 -499 -704
-18 -26 -401 -567 -412 -581 -5 -5 -30 -41 -57 -80 -28 -38 -72 -101 -100
-140 -38 -52 -335 -471 -501 -705 -636 -897 -1164 -1640 -1179 -1657 -6 -7
-11 -15 -11 -17 0 -3 -7 -14 -15 -23 -8 -10 -64 -88 -124 -173 -60 -85 -113
-160 -118 -165 -4 -6 -23 -33 -42 -60 -19 -28 -51 -72 -71 -100 -20 -27 -102
-142 -181 -255 -80 -113 -223 -314 -317 -446 -95 -133 -172 -244 -172 -248 0
-3 44 -6 98 -6 l98 0 88 123 c48 67 162 226 252 352 91 127 200 280 242 340
42 61 82 117 89 125 7 8 82 114 168 235 86 121 164 231 175 245 10 14 90 125
177 247 87 123 295 415 463 649 168 235 328 459 355 498 28 40 75 106 105 148
l55 76 1180 -1 1180 -2 0 -1515 0 -1515 80 0 80 0 1 3320 c0 2148 -3 3327 -9
3340 -22 44 -82 59 -120 31z m-32 -1921 c0 -861 -2 -1566 -5 -1566 -17 -5
-2230 -4 -2230 1 0 3 51 76 113 162 61 87 139 196 172 243 33 47 68 96 78 108
11 12 35 47 55 77 20 30 39 57 42 60 7 5 211 291 240 334 8 13 23 34 33 47 10
13 48 67 85 119 37 52 82 115 100 140 18 25 39 54 46 65 8 11 155 216 326 455
171 239 323 453 338 475 57 82 603 845 605 845 1 0 2 -704 2 -1565z"/>
<path d="M5054 8405 l-24 -25 2 -3330 2 -3330 78 0 78 0 1 3098 c0 1703 0
3132 -1 3175 -1 42 1 77 3 77 3 0 91 -121 197 -270 350 -493 558 -785 588
-825 34 -47 556 -781 598 -842 41 -59 345 -486 434 -609 77 -106 224 -313 295
-415 84 -119 789 -1107 802 -1124 4 -5 17 -23 27 -40 11 -16 23 -34 28 -40 7
-7 345 -482 438 -615 6 -8 93 -130 193 -270 154 -216 577 -811 642 -903 11
-16 79 -111 150 -212 l130 -184 103 -1 c95 0 102 1 93 18 -7 13 -440 624 -515
727 -47 64 -133 187 -169 239 -22 34 -45 66 -49 71 -10 12 -76 103 -98 135 -8
12 -32 45 -52 73 -21 29 -125 176 -232 327 -108 151 -202 284 -210 295 -8 11
-41 57 -73 102 -32 45 -143 202 -248 349 -104 147 -208 293 -230 325 -22 31
-128 180 -235 331 -201 281 -623 876 -650 915 -36 52 -625 879 -633 888 -4 6
-49 69 -99 140 -50 72 -95 132 -98 135 -4 3 -9 10 -11 15 -2 6 -84 123 -182
260 -98 138 -239 336 -314 440 -74 105 -146 206 -158 225 -13 19 -64 91 -114
160 -50 69 -95 132 -101 140 -175 249 -256 359 -275 378 -33 30 -79 29 -111
-3z"/>
</g>
</svg>
